<svg width="12" height="12" viewBox="0 0 12 12" fill="none" xmlns="http://www.w3.org/2000/svg">
<g clip-path="url(#clip0_4220_2307)">
<path d="M2.5 6.5C2.00555 6.5 1.5222 6.64662 1.11108 6.92133C0.699953 7.19603 0.379521 7.58648 0.190302 8.04329C0.00108321 8.50011 -0.0484251 9.00277 0.0480379 9.48773C0.144501 9.97268 0.382603 10.4181 0.732234 10.7678C1.08187 11.1174 1.52732 11.3555 2.01228 11.452C2.49723 11.5484 2.99989 11.4989 3.45671 11.3097C3.91353 11.1205 4.30397 10.8 4.57868 10.3889C4.85338 9.9778 5 9.49445 5 9C4.99921 8.3372 4.73556 7.70178 4.26689 7.23311C3.79822 6.76444 3.1628 6.50079 2.5 6.5ZM2.5 10.5C2.20333 10.5 1.91332 10.412 1.66665 10.2472C1.41997 10.0824 1.22771 9.84811 1.11418 9.57403C1.00065 9.29994 0.970945 8.99834 1.02882 8.70737C1.0867 8.41639 1.22956 8.14912 1.43934 7.93934C1.64912 7.72956 1.91639 7.5867 2.20737 7.52882C2.49834 7.47094 2.79994 7.50065 3.07403 7.61418C3.34812 7.72771 3.58238 7.91997 3.74721 8.16665C3.91203 8.41332 4 8.70333 4 9C4 9.39783 3.84197 9.77936 3.56066 10.0607C3.27936 10.342 2.89783 10.5 2.5 10.5ZM9.5 6.5C9.00555 6.5 8.5222 6.64662 8.11108 6.92133C7.69995 7.19603 7.37952 7.58648 7.1903 8.04329C7.00108 8.50011 6.95158 9.00277 7.04804 9.48773C7.1445 9.97268 7.3826 10.4181 7.73223 10.7678C8.08187 11.1174 8.52732 11.3555 9.01228 11.452C9.49723 11.5484 9.9999 11.4989 10.4567 11.3097C10.9135 11.1205 11.304 10.8 11.5787 10.3889C11.8534 9.9778 12 9.49445 12 9C11.9992 8.3372 11.7356 7.70178 11.2669 7.23311C10.7982 6.76444 10.1628 6.50079 9.5 6.5ZM9.5 10.5C9.20333 10.5 8.91332 10.412 8.66665 10.2472C8.41997 10.0824 8.22771 9.84811 8.11418 9.57403C8.00065 9.29994 7.97095 8.99834 8.02882 8.70737C8.0867 8.41639 8.22956 8.14912 8.43934 7.93934C8.64912 7.72956 8.91639 7.5867 9.20737 7.52882C9.49834 7.47094 9.79994 7.50065 10.074 7.61418C10.3481 7.72771 10.5824 7.91997 10.7472 8.16665C10.912 8.41332 11 8.70333 11 9C11 9.39783 10.842 9.77936 10.5607 10.0607C10.2794 10.342 9.89783 10.5 9.5 10.5ZM5.182 5.6385C5.12983 5.59401 5.08748 5.53915 5.05766 5.47741C5.02785 5.41567 5.01121 5.34839 5.00881 5.27987C5.00641 5.21134 5.0183 5.14307 5.04373 5.07939C5.06916 5.01571 5.10756 4.95803 5.1565 4.91C5.241 4.83 6.483 3.69 6.483 3.69L8.1465 5.3535C8.2408 5.44458 8.3671 5.49498 8.4982 5.49384C8.6293 5.4927 8.75471 5.44011 8.84741 5.34741C8.94011 5.25471 8.9927 5.1293 8.99384 4.9982C8.99498 4.8671 8.94458 4.7408 8.8535 4.6465L6.8535 2.6465C6.83439 2.62694 6.81365 2.60904 6.7915 2.593C6.25597 2.21389 5.6176 2.00703 4.9615 2C4.2605 2 2.5 2.595 2.5 4C2.5 4.39783 2.65804 4.77936 2.93934 5.06066C3.22065 5.34197 3.60218 5.5 4 5.5C4.012 5.5 4.023 5.4975 4.0345 5.497C4.08843 5.84625 4.26433 6.16511 4.531 6.397L5.5 7.2295V9C5.5 9.13261 5.55268 9.25979 5.64645 9.35355C5.74022 9.44732 5.86739 9.5 6 9.5C6.13261 9.5 6.25979 9.44732 6.35356 9.35355C6.44732 9.25979 6.5 9.13261 6.5 9V7C6.5 6.9279 6.4844 6.85666 6.45428 6.79116C6.42416 6.72565 6.38023 6.66744 6.3255 6.6205L5.182 5.6385ZM3.5 4C3.5 3.393 4.586 3 4.9615 3C5.18935 3.00121 5.41548 3.03955 5.631 3.1135C5.631 3.1135 4.473 4.1805 4.4595 4.1935C4.269 4.3745 4.1125 4.5 4 4.5C3.86739 4.5 3.74022 4.44732 3.64645 4.35355C3.55268 4.25979 3.5 4.13261 3.5 4ZM7 1.25C7 1.00277 7.07331 0.761099 7.21066 0.555538C7.34802 0.349976 7.54324 0.189761 7.77165 0.0951511C8.00006 0.000541605 8.25139 -0.0242126 8.49387 0.024019C8.73634 0.0722505 8.95907 0.191301 9.13389 0.366117C9.3087 0.540933 9.42775 0.763662 9.47598 1.00614C9.52422 1.24861 9.49946 1.49995 9.40485 1.72835C9.31024 1.95676 9.15003 2.15199 8.94446 2.28934C8.7389 2.42669 8.49723 2.5 8.25 2.5C7.91848 2.5 7.60054 2.3683 7.36612 2.13388C7.1317 1.89946 7 1.58152 7 1.25Z" fill="#808080"/>
</g>
<defs>
<clipPath id="clip0_4220_2307">
<rect width="12" height="12" fill="white"/>
</clipPath>
</defs>
</svg>
