<svg width="24" height="24" viewBox="0 0 24 24" fill="none" xmlns="http://www.w3.org/2000/svg">
<path d="M3.07 22.7501C2.81544 22.7515 2.56345 22.6992 2.33048 22.5966C2.0975 22.494 1.8888 22.3434 1.71798 22.1547C1.54716 21.9659 1.41808 21.7433 1.33917 21.5013C1.26025 21.2592 1.23328 21.0033 1.26 20.7501L1.67 17.1501C1.73145 16.619 1.96705 16.1232 2.34 15.7401L16.12 1.94014C16.3383 1.72093 16.5978 1.547 16.8835 1.42831C17.1693 1.30963 17.4756 1.24854 17.785 1.24854C18.0944 1.24854 18.4007 1.30963 18.6865 1.42831C18.9722 1.547 19.2317 1.72093 19.45 1.94014L22.06 4.55014C22.2792 4.76848 22.4531 5.02795 22.5718 5.31368C22.6905 5.5994 22.7516 5.90575 22.7516 6.21514C22.7516 6.52453 22.6905 6.83088 22.5718 7.1166C22.4531 7.40233 22.2792 7.6618 22.06 7.88014L8.29 21.6601C7.90692 22.0331 7.41111 22.2687 6.88 22.3301L3.28 22.7401L3.07 22.7501ZM17.78 2.75014C17.6682 2.74872 17.5574 2.77016 17.4542 2.81315C17.351 2.85614 17.2577 2.91977 17.18 3.00014L3.41 16.7701C3.27066 16.9064 3.18239 17.0865 3.16 17.2801L2.75 20.8901C2.74587 20.9389 2.75171 20.988 2.76719 21.0344C2.78266 21.0808 2.80744 21.1236 2.84 21.1601C2.87583 21.1938 2.91852 21.2192 2.96513 21.2347C3.01174 21.2503 3.06117 21.2555 3.11 21.2501L6.72 20.8401C6.90904 20.8191 7.08532 20.7344 7.22 20.6001L21 6.82014C21.1594 6.65912 21.2488 6.44171 21.2488 6.21514C21.2488 5.98857 21.1594 5.77116 21 5.61014L18.39 3.00014C18.3101 2.91995 18.215 2.85652 18.1102 2.81359C18.0055 2.77066 17.8932 2.74909 17.78 2.75014Z" fill="#808080"/>
<path d="M18.58 11.0504C18.382 11.0461 18.1929 10.9675 18.05 10.8304L13.17 6.00037C13.0296 5.85974 12.9507 5.66912 12.9507 5.47037C12.9507 5.27162 13.0296 5.08099 13.17 4.94037C13.239 4.86961 13.3214 4.81337 13.4124 4.77498C13.5034 4.73658 13.6012 4.7168 13.7 4.7168C13.7988 4.7168 13.8966 4.73658 13.9876 4.77498C14.0787 4.81337 14.1611 4.86961 14.23 4.94037L19.11 9.82037C19.1808 9.88931 19.237 9.97173 19.2754 10.0628C19.3138 10.1538 19.3336 10.2516 19.3336 10.3504C19.3336 10.4492 19.3138 10.547 19.2754 10.638C19.237 10.729 19.1808 10.8114 19.11 10.8804C18.9617 11.0029 18.772 11.0638 18.58 11.0504Z" fill="#808080"/>
</svg>
