<svg width="120" height="120" viewBox="0 0 120 120" fill="none" xmlns="http://www.w3.org/2000/svg">
<path d="M19.8492 106.028L99.1926 106.134C100.315 106.132 101.398 105.721 102.24 104.979C103.082 104.237 103.624 103.213 103.766 102.1L110.516 49.3692C110.598 48.7191 110.542 48.0588 110.35 47.4322C110.157 46.8057 109.834 46.2271 109.401 45.735C108.968 45.2429 108.436 44.8485 107.839 44.5779C107.242 44.3073 106.594 44.1668 105.939 44.1656L13.2603 44.0435C12.605 44.0425 11.957 44.181 11.3594 44.4499C10.7619 44.7187 10.2284 45.1118 9.7945 45.6028C9.36061 46.0939 9.03625 46.6717 8.84301 47.2978C8.64977 47.924 8.59207 48.5841 8.67376 49.2342L15.2723 101.984C15.4124 103.1 15.9545 104.126 16.7971 104.87C17.6397 105.615 18.7249 106.026 19.8492 106.028Z" fill="#E5E5E5"/>
<path d="M6.55563 53.5371H112.444C113.304 53.5371 114 52.8406 114 51.9815V41.1628C114 40.3036 113.304 39.6072 112.444 39.6072H6.55563C5.69648 39.6072 5 40.3036 5 41.1628V51.9815C5 52.8406 5.69648 53.5371 6.55563 53.5371Z" fill="#F1F2F4"/>
<path d="M89.7805 98.7958L91.259 98.7972C92.6738 98.7987 93.8218 97.6529 93.8232 96.2382L93.8582 61.3137C93.8596 59.8989 92.7138 58.7509 91.2991 58.7495L89.8206 58.748C88.4058 58.7466 87.2578 59.8923 87.2564 61.3071L87.2215 96.2316C87.22 97.6463 88.3658 98.7943 89.7805 98.7958Z" fill="#9FA5B2"/>
<path d="M73.7132 98.7674L75.1917 98.7689C76.6064 98.7703 77.7544 97.6246 77.7559 96.2098L77.7908 61.2854C77.7922 59.8706 76.6465 58.7226 75.2317 58.7212L73.7532 58.7197C72.3385 58.7183 71.1904 59.864 71.189 61.2788L71.1541 96.2032C71.1527 97.618 72.2984 98.766 73.7132 98.7674Z" fill="#9FA5B2"/>
<path d="M57.5572 98.8052H59.0357C60.4504 98.8052 61.5973 97.6583 61.5973 96.2435V61.319C61.5973 59.9043 60.4504 58.7574 59.0357 58.7574H57.5572C56.1424 58.7574 54.9955 59.9043 54.9955 61.319V96.2435C54.9955 97.6583 56.1424 98.8052 57.5572 98.8052Z" fill="#9FA5B2"/>
<path d="M41.5818 98.7123L43.0602 98.7137C44.475 98.7152 45.623 97.5694 45.6244 96.1547L45.6594 61.2302C45.6608 59.8154 44.515 58.6674 43.1003 58.666L41.6218 58.6645C40.207 58.6631 39.059 59.8088 39.0576 61.2236L39.0227 96.1481C39.0213 97.5628 40.167 98.7109 41.5818 98.7123Z" fill="#9FA5B2"/>
<path d="M25.5112 98.683L26.9897 98.6845C28.4044 98.6859 29.5525 97.5401 29.5539 96.1254L29.5888 61.2009C29.5902 59.7861 28.4445 58.6381 27.0297 58.6367L25.5512 58.6352C24.1365 58.6338 22.9885 59.7795 22.987 61.1943L22.9521 96.1188C22.9507 97.5335 24.0964 98.6816 25.5112 98.683Z" fill="#9FA5B2"/>
<path d="M63.7437 45.9769L65.1108 45.2287C66.4216 44.5113 66.9027 42.8671 66.1852 41.5563L52.4021 16.3734C51.6847 15.0626 50.0405 14.5816 48.7297 15.299L47.3626 16.0472C46.0518 16.7647 45.5708 18.4089 46.2882 19.7196L60.0713 44.9026C60.7887 46.2133 62.4329 46.6944 63.7437 45.9769Z" fill="#8A909C"/>
<path d="M64.0431 51.2298C67.5046 51.2298 70.3106 48.4238 70.3106 44.9623C70.3106 41.5009 67.5046 38.6948 64.0431 38.6948C60.5817 38.6948 57.7756 41.5009 57.7756 44.9623C57.7756 48.4238 60.5817 51.2298 64.0431 51.2298Z" fill="#9FA5B2"/>
</svg>
