<svg width="120" height="120" viewBox="0 0 120 120" fill="none" xmlns="http://www.w3.org/2000/svg">
<path d="M108.403 50.4493C106.711 48.9272 104.719 47.775 102.556 47.0663C100.393 46.3575 98.1052 46.1078 95.84 46.3331C91.7623 46.8704 88.0238 48.8863 85.3343 51.998C82.6448 55.1097 81.1914 59.1006 81.25 63.2131V76.2501H38.75V63.213C38.8071 59.1009 37.3531 55.1108 34.6639 51.9995C31.9746 48.8881 28.237 46.8718 24.16 46.333C20.2807 45.9349 16.3876 46.945 13.1913 49.1789C9.99493 51.4129 7.70845 54.7217 6.74915 58.5015C5.78986 62.2814 6.22173 66.2801 7.96593 69.7679C9.71014 73.2558 12.6504 76.0001 16.25 77.5001V90.0001C16.2528 92.3199 17.1756 94.5438 18.8159 96.1842C20.4563 97.8245 22.6802 98.7473 25 98.7501H95C97.3198 98.7473 99.5437 97.8245 101.184 96.1842C102.824 94.5438 103.747 92.3199 103.75 90.0001V77.5001C106.277 76.4468 108.498 74.772 110.205 72.6311C111.912 70.4902 113.051 67.9527 113.515 65.2542C113.979 62.5557 113.754 59.7836 112.86 57.1954C111.967 54.6071 110.434 52.2866 108.403 50.4493Z" fill="#E5E5E5"/>
<path d="M98.75 30V41.3C98.318 41.2583 97.8839 41.2416 97.45 41.25C96.7505 41.25 96.05 41.3 95.3504 41.35C90.0471 42.0301 85.1763 44.628 81.6574 48.6535C78.1384 52.679 76.215 57.8534 76.25 63.2V71.25H43.75V63.2C43.785 57.8534 41.8615 52.679 38.3426 48.6535C34.8237 44.6281 29.9529 42.0301 24.6496 41.35C23.9502 41.3 23.2496 41.25 22.55 41.25C22.1161 41.2417 21.682 41.2584 21.25 41.3V30C21.249 28.194 21.6039 26.4056 22.2946 24.7369C22.9852 23.0682 23.998 21.552 25.275 20.275C26.552 18.998 28.0682 17.9852 29.7369 17.2946C31.4056 16.6039 33.194 16.249 35 16.25H85C86.806 16.249 88.5944 16.6039 90.2631 17.2945C91.9318 17.9852 93.448 18.998 94.725 20.275C96.002 21.552 97.0148 23.0682 97.7054 24.7369C98.3961 26.4056 98.751 28.194 98.75 30Z" fill="#F1F2F4"/>
<path d="M30 103.75C29.0055 103.75 28.0518 103.355 27.3486 102.651C26.6454 101.948 26.2503 100.994 26.25 100V95C26.25 94.0054 26.6451 93.0516 27.3483 92.3483C28.0516 91.6451 29.0054 91.25 30 91.25C30.9946 91.25 31.9484 91.6451 32.6517 92.3483C33.3549 93.0516 33.75 94.0054 33.75 95V100C33.7497 100.994 33.3546 101.948 32.6514 102.651C31.9482 103.355 30.9945 103.75 30 103.75Z" fill="#8A909C"/>
<path d="M90 103.75C89.0055 103.75 88.0518 103.355 87.3486 102.651C86.6454 101.948 86.2503 100.994 86.25 100V95C86.25 94.0054 86.6451 93.0516 87.3483 92.3483C88.0516 91.6451 89.0054 91.25 90 91.25C90.9946 91.25 91.9484 91.6451 92.6517 92.3483C93.3549 93.0516 93.75 94.0054 93.75 95V100C93.7497 100.994 93.3546 101.948 92.6514 102.651C91.9482 103.355 90.9945 103.75 90 103.75Z" fill="#8A909C"/>
</svg>
