<svg width="120" height="120" viewBox="0 0 120 120" fill="none" xmlns="http://www.w3.org/2000/svg">
<path d="M15.5554 45.8829C12.4872 45.8829 9.99988 43.3545 9.99988 40.2358V17.6471C9.99988 14.5283 12.4872 12 15.5554 12H104.444C107.513 12 110 14.5283 110 17.6471V40.2358C110 43.3545 107.513 45.8829 104.444 45.8829H15.5554Z" fill="#F1F2F4"/>
<path d="M93.3335 28.9399V108L82.241 96.7059L71.1363 108L60.0299 96.7059L48.9207 108L37.7937 96.7059L26.6665 108V28.9399H93.3335Z" fill="#E5E5E5"/>
<path d="M71.1111 54.3536H49.0082C47.4728 54.3536 46.2304 53.0894 46.2304 51.5301C46.2304 49.9708 47.4728 48.7065 49.0082 48.7065H71.1111C72.6465 48.7065 73.8889 49.9708 73.8889 51.5301C73.8889 53.0894 72.6465 54.3536 71.1111 54.3536Z" fill="#8A909C"/>
<path d="M71.1111 76.9425H49.0082C47.4728 76.9425 46.2304 75.6782 46.2304 74.1189C46.2304 72.5597 47.4728 71.2954 49.0082 71.2954H71.1111C72.6465 71.2954 73.8889 72.5597 73.8889 74.1189C73.8889 75.6782 72.6465 76.9425 71.1111 76.9425Z" fill="#8A909C"/>
</svg>
