<svg width="14" height="16" viewBox="0 0 14 16" fill="none" xmlns="http://www.w3.org/2000/svg">
<path d="M7.00001 0.571301C5.51207 0.569037 4.07158 1.09468 2.9348 2.05472C1.79802 3.01476 1.03866 4.34693 0.791822 5.81425C0.544984 7.28157 0.82667 8.78887 1.58677 10.068C2.34687 11.3472 3.53609 12.3152 4.94286 12.7999L6.52744 15.1764C6.57962 15.2547 6.65032 15.3189 6.73325 15.3633C6.81619 15.4076 6.9088 15.4309 7.00286 15.4309C7.09693 15.4309 7.18954 15.4076 7.27247 15.3633C7.35541 15.3189 7.42611 15.2547 7.47829 15.1764L9.06001 12.7999C10.467 12.3151 11.6564 11.3468 12.4165 10.0674C13.1766 8.78796 13.458 7.28034 13.2108 5.81284C12.9636 4.34533 12.2037 3.01314 11.0664 2.05333C9.92914 1.09352 8.48819 0.568356 7.00001 0.571301ZM7.00001 9.71416C6.43492 9.71416 5.88252 9.54659 5.41266 9.23264C4.94281 8.9187 4.5766 8.47247 4.36035 7.9504C4.1441 7.42832 4.08752 6.85385 4.19776 6.29962C4.30801 5.74538 4.58012 5.23629 4.9797 4.83671C5.37928 4.43713 5.88837 4.16502 6.44261 4.05477C6.99684 3.94453 7.57131 4.00111 8.09339 4.21736C8.61546 4.43361 9.06169 4.79982 9.37564 5.26967C9.68958 5.73953 9.85715 6.29193 9.85715 6.85702C9.85624 7.6145 9.55493 8.3407 9.01931 8.87632C8.48369 9.41194 7.75749 9.71325 7.00001 9.71416Z" fill="#2A8F70"/>
</svg>
