<svg width="24" height="24" viewBox="0 0 24 24" fill="none" xmlns="http://www.w3.org/2000/svg">
<rect width="24" height="24" fill="#EEEEEE"/>
<g clip-path="url(#clip0_2_2)">
<rect width="360" height="780" transform="translate(-16 -170)" fill="white"/>
<path d="M12 0C6.93398 0 2.8125 4.12148 2.8125 9.1875C2.8125 10.8091 3.24094 12.4034 4.05141 13.7979C4.24041 14.1231 4.45162 14.4398 4.6793 14.7397L11.6009 24H12.3992L19.3207 14.7396C19.5484 14.4398 19.7596 14.123 19.9485 13.7979C20.7591 12.4034 21.1875 10.8091 21.1875 9.1875C21.1875 4.12148 17.066 0 12 0ZM18.7327 13.0913C18.5722 13.3674 18.3928 13.6365 18.1992 13.8912L12 22.1851L5.80416 13.8957L5.80078 13.8912C5.60723 13.6366 5.42775 13.3675 5.26725 13.0913C4.58128 11.9111 4.21875 10.5612 4.21875 9.1875C4.21875 4.89689 7.70944 1.40625 12 1.40625C16.2906 1.40625 19.7812 4.89689 19.7812 9.1875C19.7812 10.5612 19.4187 11.9111 18.7327 13.0913Z" fill="#444444"/>
<path d="M12 6.14062C10.32 6.14062 8.95312 7.50745 8.95312 9.1875C8.95312 10.8675 10.32 12.2344 12 12.2344C13.68 12.2344 15.0469 10.8675 15.0469 9.1875C15.0469 7.50745 13.68 6.14062 12 6.14062ZM12 10.8281C11.0954 10.8281 10.3594 10.0921 10.3594 9.1875C10.3594 8.28286 11.0954 7.54688 12 7.54688C12.9046 7.54688 13.6406 8.28286 13.6406 9.1875C13.6406 10.0921 12.9046 10.8281 12 10.8281Z" fill="#444444"/>
</g>
<defs>
<clipPath id="clip0_2_2">
<rect width="360" height="780" fill="white" transform="translate(-16 -170)"/>
</clipPath>
</defs>
</svg>
