<svg width="14" height="14" viewBox="0 0 14 14" fill="none" xmlns="http://www.w3.org/2000/svg">
<path d="M6.38136 13.5887C6.24732 13.589 6.11454 13.5627 5.99068 13.5115C5.86681 13.4603 5.75429 13.3851 5.65961 13.2902L4.56644 12.1976C4.41231 12.0377 4.31323 11.8328 4.28361 11.6127C4.254 11.3927 4.2954 11.1689 4.40179 10.9739C4.50091 10.7815 4.53633 10.5626 4.50293 10.3487C4.46952 10.1348 4.36904 9.93711 4.21596 9.78407C4.06289 9.63103 3.86515 9.53058 3.65128 9.49723C3.43741 9.46387 3.21847 9.49933 3.02606 9.59849C2.83098 9.70442 2.60724 9.7455 2.38725 9.7158C2.16726 9.6861 1.96243 9.58716 1.80243 9.43329L0.709842 8.34039C0.615027 8.24563 0.539812 8.13311 0.488496 8.00927C0.437179 7.88542 0.410767 7.75268 0.410767 7.61863C0.410767 7.48458 0.437179 7.35184 0.488496 7.22799C0.539812 7.10415 0.615027 6.99163 0.709842 6.89687L6.89691 0.709778C7.08843 0.518543 7.34802 0.411133 7.61867 0.411133C7.88932 0.411133 8.14891 0.518543 8.34043 0.709778L9.4336 1.80236C9.58773 1.96223 9.68681 2.16713 9.71642 2.38721C9.74603 2.6073 9.70463 2.83109 9.59824 3.02602C9.49913 3.21845 9.46371 3.43739 9.49711 3.65126C9.53051 3.86512 9.631 4.06284 9.78408 4.21588C9.93715 4.36892 10.1349 4.46937 10.3488 4.50273C10.5626 4.53609 10.7816 4.50063 10.974 4.40147C11.1691 4.29563 11.3928 4.25459 11.6128 4.28429C11.8327 4.31398 12.0376 4.41288 12.1976 4.56667L13.2902 5.65957C13.385 5.75433 13.4602 5.86685 13.5115 5.99069C13.5629 6.11453 13.5893 6.24727 13.5893 6.38133C13.5893 6.51538 13.5629 6.64812 13.5115 6.77196C13.4602 6.89581 13.385 7.00832 13.2902 7.10309L7.10313 13.2902C7.00844 13.3851 6.89593 13.4603 6.77206 13.5115C6.64819 13.5627 6.51541 13.589 6.38136 13.5887ZM3.49546 8.6087C3.82052 8.60934 4.13997 8.69345 4.42319 8.85298C4.70641 9.01251 4.94391 9.24211 5.11293 9.51977C5.28195 9.79743 5.37682 10.1138 5.38846 10.4387C5.40009 10.7635 5.3281 11.0859 5.17938 11.375C5.15933 11.4055 5.14913 11.4415 5.15014 11.478C5.15116 11.5145 5.16335 11.5498 5.18508 11.5792L6.27824 12.6715C6.29178 12.6851 6.30786 12.6958 6.32555 12.7031C6.34324 12.7105 6.3622 12.7143 6.38135 12.7143C6.4005 12.7143 6.41946 12.7105 6.43715 12.7031C6.45485 12.6958 6.47092 12.6851 6.48446 12.6715L12.6716 6.48443C12.6851 6.47092 12.6959 6.45488 12.7032 6.43721C12.7105 6.41954 12.7143 6.4006 12.7143 6.38148C12.7143 6.36235 12.7105 6.34341 12.7032 6.32574C12.6959 6.30808 12.6851 6.29203 12.6716 6.27852L11.579 5.18535C11.5497 5.16359 11.5144 5.15135 11.4779 5.15027C11.4415 5.1492 11.4055 5.15934 11.375 5.17934C11.0177 5.36346 10.6111 5.42928 10.214 5.36731C9.81685 5.30534 9.44967 5.11878 9.16544 4.83455C8.88122 4.55033 8.69466 4.18315 8.63269 3.786C8.57071 3.38885 8.63654 2.98228 8.82065 2.62498C8.84071 2.59444 8.85091 2.55849 8.84989 2.52197C8.84888 2.48545 8.83668 2.45013 8.81496 2.42075L7.7218 1.32843C7.70826 1.31488 7.69218 1.30414 7.67449 1.29681C7.6568 1.28948 7.63784 1.2857 7.61869 1.2857C7.59954 1.2857 7.58058 1.28948 7.56288 1.29681C7.54519 1.30414 7.52912 1.31488 7.51558 1.32843L1.32847 7.51552C1.31493 7.52903 1.30418 7.54508 1.29686 7.56275C1.28953 7.58041 1.28575 7.59935 1.28575 7.61848C1.28575 7.63761 1.28953 7.65655 1.29686 7.67421C1.30418 7.69188 1.31493 7.70793 1.32847 7.72144L2.42105 8.81461C2.45034 8.83637 2.48561 8.84862 2.52209 8.84969C2.55857 8.85077 2.5945 8.84062 2.62502 8.82061C2.89407 8.68146 3.19255 8.60879 3.49546 8.6087Z" fill="#2A8F70"/>
<path d="M7 9.1875C6.88398 9.18747 6.77272 9.14137 6.69067 9.05932C6.60863 8.97728 6.56253 8.86602 6.5625 8.75V5.25C6.5625 5.13397 6.60859 5.02269 6.69064 4.94064C6.77269 4.85859 6.88397 4.8125 7 4.8125C7.11603 4.8125 7.22731 4.85859 7.30936 4.94064C7.39141 5.02269 7.4375 5.13397 7.4375 5.25V8.75C7.43747 8.86602 7.39137 8.97728 7.30933 9.05932C7.22728 9.14137 7.11602 9.18747 7 9.1875Z" fill="#2A8F70"/>
<path d="M5.35036 7.17106C5.67253 7.17106 5.9337 6.90989 5.9337 6.58773C5.9337 6.26556 5.67253 6.00439 5.35036 6.00439C5.0282 6.00439 4.76703 6.26556 4.76703 6.58773C4.76703 6.90989 5.0282 7.17106 5.35036 7.17106Z" fill="#2A8F70"/>
<path d="M8.64968 7.99577C8.97184 7.99577 9.23301 7.7346 9.23301 7.41243C9.23301 7.09027 8.97184 6.8291 8.64968 6.8291C8.32751 6.8291 8.06635 7.09027 8.06635 7.41243C8.06635 7.7346 8.32751 7.99577 8.64968 7.99577Z" fill="#2A8F70"/>
</svg>
