<svg width="14" height="14" viewBox="0 0 14 14" fill="none" xmlns="http://www.w3.org/2000/svg">
<g clip-path="url(#clip0_4466_540)">
<path d="M13.8536 4.28159L12.7041 1.84278C12.596 1.61349 12.3624 1.46533 12.1089 1.46533H1.89108C1.63759 1.46533 1.40397 1.61349 1.2959 1.84279L0.146398 4.28159C-0.0772454 4.75607 -0.0430504 5.30381 0.237888 5.74679C0.470834 6.11411 0.841259 6.35868 1.26007 6.43152V12.0612H0.727132C0.596386 12.0612 0.490399 12.1672 0.490399 12.298C0.490399 12.4287 0.596386 12.5347 0.727132 12.5347H13.2985C13.4293 12.5347 13.5353 12.4287 13.5353 12.298C13.5353 12.1672 13.4293 12.0612 13.2985 12.0612H12.7399V6.43152C13.1587 6.35868 13.5292 6.11412 13.7621 5.74679C14.043 5.30381 14.0772 4.75607 13.8536 4.28159ZM10.0466 1.9388L10.812 4.64533C10.9023 4.96468 10.8393 5.29963 10.6391 5.56431C10.4389 5.82899 10.1337 5.98078 9.80184 5.98078H9.67179C9.12709 5.98078 8.67778 5.57183 8.62666 5.02953L8.60391 4.78819L8.6039 4.78805L8.33531 1.9388H10.0466ZM5.86747 4.83261L6.14026 1.93881H7.85975L8.13254 4.83261C8.16059 5.13047 8.06513 5.41636 7.86374 5.63763C7.66233 5.85892 7.38662 5.98078 7.08741 5.98078H6.91261C6.61338 5.98078 6.33767 5.8589 6.13627 5.63762C5.93487 5.41635 5.83941 5.13046 5.86747 4.83261ZM5.66469 1.9388L5.3961 4.78805L5.39608 4.78819L5.37333 5.02953C5.32221 5.57183 4.8729 5.98078 4.3282 5.98078H4.19816C3.8663 5.98078 3.56114 5.82899 3.36093 5.56431C3.16076 5.29968 3.09772 4.96479 3.18797 4.6455L3.95342 1.9388H5.66469ZM0.637728 5.49322C0.444122 5.18793 0.420546 4.81044 0.574672 4.48345L1.72418 2.04465C1.75448 1.98035 1.81999 1.93881 1.89108 1.93881H3.46139L2.5344 5.21668C2.40717 5.66657 1.99179 5.98078 1.52426 5.98078C1.16275 5.98078 0.831334 5.79851 0.637728 5.49322ZM12.2665 12.0612H5.60758V6.628C5.60758 6.49725 5.50159 6.39127 5.37085 6.39127C5.2401 6.39127 5.13411 6.49725 5.13411 6.628V12.0612H1.73354V6.44003C1.99059 6.40492 2.23277 6.305 2.44318 6.14585C2.61769 6.01384 2.75896 5.84972 2.86128 5.66189C2.897 5.72676 2.9377 5.78962 2.98334 5.84994C3.27384 6.23399 3.71662 6.45425 4.19817 6.45425H4.32821C4.7083 6.45425 5.07242 6.31336 5.35351 6.05751C5.45763 5.96274 5.54709 5.85512 5.62031 5.73796C5.66858 5.81505 5.72392 5.88798 5.78612 5.95632C5.92717 6.11129 6.095 6.23347 6.28498 6.31946C6.48259 6.4089 6.69375 6.45425 6.91261 6.45425H7.08741C7.30627 6.45425 7.51743 6.4089 7.71503 6.31946C7.90501 6.23347 8.07285 6.11129 8.2139 5.95632C8.27609 5.88799 8.33143 5.81505 8.37971 5.73796C8.45293 5.85512 8.54238 5.96274 8.64651 6.05751C8.9276 6.31336 9.29172 6.45425 9.67181 6.45425H9.80185C10.2834 6.45425 10.7262 6.23399 11.0167 5.84994C11.0623 5.78962 11.103 5.72677 11.1387 5.66189C11.241 5.84972 11.3823 6.01384 11.5568 6.14585C11.7672 6.305 12.0094 6.40491 12.2665 6.44003L12.2665 12.0612ZM13.3623 5.49322C13.1687 5.79851 12.8373 5.98078 12.4757 5.98078C12.0082 5.98078 11.5928 5.66657 11.4656 5.21668L10.5386 1.9388H12.1089C12.18 1.9388 12.2455 1.98034 12.2758 2.04464L13.4253 4.48344C13.5795 4.81044 13.5559 5.18793 13.3623 5.49322ZM2.39476 8.9627C2.19639 8.9627 2.03558 9.12351 2.03558 9.32187C2.03558 9.52025 2.19639 9.68106 2.39476 9.68106C2.59314 9.68106 2.75395 9.52025 2.75395 9.32187C2.75395 9.12351 2.59314 8.9627 2.39476 8.9627Z" fill="#6B707A"/>
</g>
<defs>
<clipPath id="clip0_4466_540">
<rect width="14" height="14" fill="white"/>
</clipPath>
</defs>
</svg>
